# xmcd
#
# Track frame offsets: 
#        150
#        18320
#        35762
#        60450
#        81760
#        102242
#        122555
#        144767
#        164872
#        186037
#        206070
#
# Disc length: 2991 seconds
#
# Revision: 7
# Processed by: cddbd v1.5.2PL0 Copyright (c) Steve Scherf et al.
# Submitted via: ExactAudioCopyFreeDBPlugin 1.0
#
DISCID=930bad0b
DTITLE=James "J.T." Taylor - Master Of The Game
DYEAR=1989
DGENRE=Soul
TTITLE0=Sister Rosa
TTITLE1=8 Days A Week
TTITLE2=The House That Jack Built
TTITLE3=Bring Back The Night
TTITLE4=Master Of The Game
TTITLE5=Kiss My Face
TTITLE6=Lay Awake At Night
TTITLE7=Girl You're Mine Now
TTITLE8=Romancia
TTITLE9=All I Want Is Forever
TTITLE10=The Promised Land
EXTD=more info\nMillenniumMusicProjectFormat, syntax as follows:\nTitl
EXTD=e{Subtitle}[info](Lyricist;Composer;Date,Artist,Location)[info]\n
EXTD=corrections to: windking3@yahoo.com YEAR: 1989
EXTT0=
EXTT1=
EXTT2=
EXTT3=
EXTT4=
EXTT5=
EXTT6=
EXTT7=
EXTT8=
EXTT9=
EXTT10=
PLAYORDER=
